<svg width="1200" height="600" viewBox="0 0 1200 600" xmlns="http://www.w3.org/2000/svg"><mask id="satori_om-id"><rect x="0" y="0" width="1200" height="600" fill="#fff"/></mask><rect x="0" y="0" width="1200" height="600" fill="#fff"/><clipPath id="satori_cp-id-0"><rect x="563" y="228" width="75" height="65"/></clipPath><mask id="satori_om-id-0"><rect x="563" y="228" width="75" height="65" fill="#fff"/></mask><image x="563" y="228" width="75" height="65" href="data:image/svg+xml;utf8,%3Csvg  fill=%22%23000%22 xmlns=%22http://www.w3.org/2000/svg%22 width=%22NaN%22 height=%22null%22 viewBox=%220 0 75 65%22%3E%3Cpath d=%22M37.59.25l36.95 64H.64l36.95-64z%22%3E%3C/path%3E%3C/svg%3E" preserveAspectRatio="none" clip-path="url(#satori_cp-id-0)" mask="url(#satori_om-id-0)"/><mask id="satori_om-id-0-0"><rect x="563" y="228" width="0" height="65" fill="#fff"/></mask><mask id="satori_om-id-1"><rect x="413" y="333" width="375" height="39" fill="#fff"/></mask><path fill="black" d="M432.4 347.4L427.6 347.4Q427.5 346.0 426.5 345.3Q425.4 344.5 423.7 344.5L423.7 344.5Q422.5 344.5 421.6 344.9Q420.8 345.2 420.4 345.8Q419.9 346.4 419.9 347.1L419.9 347.1Q419.9 347.8 420.2 348.2Q420.5 348.7 421 349.0Q421.5 349.4 422.2 349.6Q422.9 349.8 423.6 350.0L423.6 350.0L425.7 350.5Q427.2 350.9 428.5 351.4Q429.8 352.0 430.7 352.8Q431.6 353.6 432.2 354.8Q432.7 355.9 432.7 357.4L432.7 357.4Q432.7 359.5 431.6 361.1Q430.5 362.6 428.5 363.5Q426.5 364.3 423.6 364.3L423.6 364.3Q420.8 364.3 418.7 363.5Q416.7 362.6 415.5 360.9Q414.3 359.2 414.3 356.7L414.3 356.7L419.0 356.7Q419.1 357.9 419.7 358.6Q420.3 359.4 421.3 359.8Q422.3 360.2 423.6 360.2L423.6 360.2Q424.8 360.2 425.8 359.8Q426.7 359.5 427.2 358.8Q427.7 358.2 427.7 357.3L427.7 357.3Q427.7 356.6 427.3 356.0Q426.8 355.5 425.9 355.1Q425.0 354.7 423.8 354.4L423.8 354.4L421.2 353.8Q418.3 353.1 416.6 351.6Q414.9 350.0 414.9 347.5L414.9 347.5Q414.9 345.3 416.0 343.8Q417.2 342.2 419.2 341.3Q421.2 340.4 423.7 340.4L423.7 340.4Q426.3 340.4 428.2 341.3Q430.2 342.2 431.3 343.8Q432.3 345.3 432.4 347.4L432.4 347.4ZM443.8 364.3L443.8 364.3Q441.1 364.3 439.2 363.2Q437.3 362.1 436.2 360.1Q435.2 358.0 435.2 355.3L435.2 355.3Q435.2 352.6 436.2 350.6Q437.3 348.6 439.2 347.4Q441.1 346.3 443.8 346.3L443.8 346.3Q446.4 346.3 448.3 347.4Q450.3 348.6 451.3 350.6Q452.4 352.6 452.4 355.3L452.4 355.3Q452.4 358.0 451.3 360.1Q450.3 362.1 448.3 363.2Q446.4 364.3 443.8 364.3ZM443.8 360.6L443.8 360.6Q445 360.6 445.8 359.9Q446.6 359.2 447.0 358.0Q447.4 356.8 447.4 355.3L447.4 355.3Q447.4 353.8 447.0 352.6Q446.6 351.4 445.8 350.7Q445 350.0 443.8 350.0L443.8 350.0Q442.6 350.0 441.8 350.7Q440.9 351.4 440.5 352.6Q440.1 353.8 440.1 355.3L440.1 355.3Q440.1 356.8 440.5 358.0Q440.9 359.2 441.8 359.9Q442.6 360.6 443.8 360.6ZM455.5 340.7L460.4 340.7L460.4 364L455.5 364L455.5 340.7ZM475.4 356.6L475.4 356.6L475.4 346.5L480.3 346.5L480.3 364L475.6 364L475.6 360.8L475.4 360.8Q474.8 362.4 473.5 363.3Q472.1 364.2 470.1 364.2L470.1 364.2Q468.4 364.2 467.1 363.4Q465.7 362.6 465.0 361.2Q464.2 359.7 464.2 357.7L464.2 357.7L464.2 346.5L469.1 346.5L469.1 356.8Q469.1 358.3 469.9 359.2Q470.7 360.1 472.1 360.1L472.1 360.1Q473.0 360.1 473.7 359.7Q474.5 359.3 475.0 358.5Q475.4 357.7 475.4 356.6ZM482.9 346.5L493.4 346.5L493.4 350.2L482.9 350.2L482.9 346.5ZM485.3 359.3L485.3 342.4L490.1 342.4L490.1 358.6Q490.1 359.3 490.3 359.7Q490.5 360.0 490.9 360.2Q491.3 360.3 491.8 360.3L491.8 360.3Q492.1 360.3 492.4 360.3Q492.8 360.2 493.0 360.2L493.0 360.2L493.7 363.8Q493.4 363.9 492.7 364.1Q492.0 364.2 491.1 364.2L491.1 364.2Q489.4 364.3 488.0 363.8Q486.7 363.2 486.0 362.1Q485.3 361.0 485.3 359.3L485.3 359.3ZM501.4 364L496.6 364L496.6 346.5L501.4 346.5L501.4 364ZM499.0 344.3L499.0 344.3Q497.9 344.3 497.1 343.6Q496.4 342.9 496.4 341.8L496.4 341.8Q496.4 340.8 497.1 340.1Q497.9 339.4 499.0 339.4L499.0 339.4Q500.1 339.4 500.8 340.1Q501.6 340.8 501.6 341.8L501.6 341.8Q501.6 342.9 500.8 343.6Q500.1 344.3 499.0 344.3ZM513.1 364.3L513.1 364.3Q510.5 364.3 508.6 363.2Q506.6 362.1 505.6 360.1Q504.6 358.0 504.6 355.3L504.6 355.3Q504.6 352.6 505.6 350.6Q506.6 348.6 508.6 347.4Q510.5 346.3 513.1 346.3L513.1 346.3Q515.8 346.3 517.7 347.4Q519.6 348.6 520.7 350.6Q521.7 352.6 521.7 355.3L521.7 355.3Q521.7 358.0 520.7 360.1Q519.6 362.1 517.7 363.2Q515.8 364.3 513.1 364.3ZM513.2 360.6L513.2 360.6Q514.4 360.6 515.2 359.9Q516.0 359.2 516.4 358.0Q516.8 356.8 516.8 355.3L516.8 355.3Q516.8 353.8 516.4 352.6Q516.0 351.4 515.2 350.7Q514.4 350.0 513.2 350.0L513.2 350.0Q512.0 350.0 511.1 350.7Q510.3 351.4 509.9 352.6Q509.5 353.8 509.5 355.3L509.5 355.3Q509.5 356.8 509.9 358.0Q510.3 359.2 511.1 359.9Q512.0 360.6 513.2 360.6ZM529.7 353.9L529.7 353.9L529.7 364L524.9 364L524.9 346.5L529.5 346.5L529.5 349.6L529.7 349.6Q530.3 348.1 531.7 347.2Q533.0 346.3 535.0 346.3L535.0 346.3Q536.8 346.3 538.1 347.1Q539.5 347.9 540.2 349.4Q541.0 350.9 541.0 352.9L541.0 352.9L541.0 364L536.1 364L536.1 353.8Q536.2 352.1 535.3 351.2Q534.5 350.3 533.0 350.3L533.0 350.3Q532.1 350.3 531.3 350.8Q530.6 351.2 530.2 352.0Q529.7 352.8 529.7 353.9Z M557.1 364L552.3 364L552.3 340.7L557.1 340.7L557.1 349.5L557.3 349.5Q557.6 348.8 558.2 348.0Q558.8 347.3 559.8 346.8Q560.8 346.3 562.3 346.3L562.3 346.3Q564.2 346.3 565.8 347.3Q567.4 348.3 568.4 350.3Q569.3 352.3 569.3 355.3L569.3 355.3Q569.3 358.2 568.4 360.2Q567.5 362.2 565.8 363.3Q564.2 364.3 562.3 364.3L562.3 364.3Q560.8 364.3 559.9 363.8Q558.9 363.4 558.3 362.6Q557.6 361.9 557.3 361.2L557.3 361.2L557.1 361.2L557.1 364ZM557.0 355.3L557.0 355.3Q557.0 356.8 557.5 358.0Q557.9 359.1 558.7 359.8Q559.5 360.4 560.7 360.4L560.7 360.4Q561.9 360.4 562.7 359.8Q563.5 359.1 564.0 358.0Q564.4 356.8 564.4 355.3L564.4 355.3Q564.4 353.8 564.0 352.6Q563.5 351.5 562.7 350.8Q561.9 350.2 560.7 350.2L560.7 350.2Q559.5 350.2 558.7 350.8Q557.9 351.4 557.5 352.6Q557.0 353.7 557.0 355.3ZM575.0 370.5L575.0 370.5Q574.0 370.5 573.2 370.4Q572.4 370.3 571.9 370.0L571.9 370.0L573 366.4Q573.9 366.7 574.5 366.7Q575.2 366.7 575.7 366.4Q576.2 366.1 576.6 365.2L576.6 365.2L576.8 364.5L570.6 346.5L575.7 346.5L579.3 359.4L579.5 359.4L583.1 346.5L588.2 346.5L581.5 365.9Q581.0 367.3 580.1 368.3Q579.3 369.4 578.0 370.0Q576.8 370.5 575.0 370.5Z M603.7 364L598.8 364L598.8 340.7L603.7 340.7L603.7 351.0L604.0 351.0L612.4 340.7L618.3 340.7L609.7 351.1L618.4 364L612.5 364L606.1 354.4L603.7 357.4L603.7 364ZM627.4 364.3L627.4 364.3Q624.8 364.3 622.8 363.2Q620.9 362.1 619.9 360.1Q618.8 358.0 618.8 355.3L618.8 355.3Q618.8 352.6 619.9 350.6Q620.9 348.6 622.8 347.4Q624.8 346.3 627.4 346.3L627.4 346.3Q630.0 346.3 632.0 347.4Q633.9 348.6 634.9 350.6Q636.0 352.6 636.0 355.3L636.0 355.3Q636.0 358.0 634.9 360.1Q633.9 362.1 632.0 363.2Q630.0 364.3 627.4 364.3ZM627.4 360.6L627.4 360.6Q628.6 360.6 629.4 359.9Q630.2 359.2 630.7 358.0Q631.1 356.8 631.1 355.3L631.1 355.3Q631.1 353.8 630.7 352.6Q630.2 351.4 629.4 350.7Q628.6 350.0 627.4 350.0L627.4 350.0Q626.2 350.0 625.4 350.7Q624.6 351.4 624.1 352.6Q623.7 353.8 623.7 355.3L623.7 355.3Q623.7 356.8 624.1 358.0Q624.6 359.2 625.4 359.9Q626.2 360.6 627.4 360.6ZM644.0 370.5L639.1 370.5L639.1 346.5L643.9 346.5L643.9 349.5L644.1 349.5Q644.5 348.8 645.1 348.0Q645.7 347.3 646.7 346.8Q647.6 346.3 649.1 346.3L649.1 346.3Q651.0 346.3 652.6 347.3Q654.2 348.3 655.2 350.3Q656.2 352.3 656.2 355.3L656.2 355.3Q656.2 358.2 655.2 360.2Q654.3 362.2 652.7 363.3Q651.1 364.3 649.1 364.3L649.1 364.3Q647.7 364.3 646.7 363.8Q645.7 363.4 645.1 362.6Q644.5 361.9 644.1 361.2L644.1 361.2L644.0 361.2L644.0 370.5ZM643.9 355.3L643.9 355.3Q643.9 356.8 644.3 358.0Q644.8 359.1 645.6 359.8Q646.4 360.4 647.6 360.4L647.6 360.4Q648.7 360.4 649.6 359.8Q650.4 359.1 650.8 358.0Q651.2 356.8 651.2 355.3L651.2 355.3Q651.2 353.8 650.8 352.6Q650.4 351.5 649.6 350.8Q648.8 350.2 647.6 350.2L647.6 350.2Q646.4 350.2 645.6 350.8Q644.8 351.4 644.3 352.6Q643.9 353.7 643.9 355.3ZM661.8 370.5L661.8 370.5Q660.9 370.5 660.1 370.4Q659.3 370.3 658.8 370.0L658.8 370.0L659.8 366.4Q660.7 366.7 661.4 366.7Q662.1 366.7 662.6 366.4Q663.1 366.1 663.4 365.2L663.4 365.2L663.7 364.5L657.4 346.5L662.5 346.5L666.1 359.4L666.3 359.4L670.0 346.5L675.1 346.5L668.3 365.9Q667.8 367.3 667.0 368.3Q666.1 369.4 664.9 370.0Q663.6 370.5 661.8 370.5ZM676.3 346.5L686.8 346.5L686.8 350.2L676.3 350.2L676.3 346.5ZM678.7 359.3L678.7 342.4L683.6 342.4L683.6 358.6Q683.6 359.3 683.8 359.7Q684.0 360.0 684.3 360.2Q684.7 360.3 685.2 360.3L685.2 360.3Q685.5 360.3 685.9 360.3Q686.2 360.2 686.4 360.2L686.4 360.2L687.2 363.8Q686.8 363.9 686.1 364.1Q685.5 364.2 684.5 364.2L684.5 364.2Q682.8 364.3 681.5 363.8Q680.2 363.2 679.4 362.1Q678.7 361.0 678.7 359.3L678.7 359.3ZM694.8 364L690.0 364L690.0 346.5L694.8 346.5L694.8 364ZM692.4 344.3L692.4 344.3Q691.3 344.3 690.6 343.6Q689.8 342.9 689.8 341.8L689.8 341.8Q689.8 340.8 690.6 340.1Q691.3 339.4 692.4 339.4L692.4 339.4Q693.5 339.4 694.3 340.1Q695.0 340.8 695.0 341.8L695.0 341.8Q695.0 342.9 694.3 343.6Q693.5 344.3 692.4 344.3ZM703.5 353.9L703.5 353.9L703.5 364L698.7 364L698.7 346.5L703.3 346.5L703.3 349.6L703.5 349.6Q704.1 348.1 705.5 347.2Q706.8 346.3 708.8 346.3L708.8 346.3Q710.6 346.3 711.9 347.1Q713.3 347.9 714.0 349.4Q714.8 350.9 714.8 352.9L714.8 352.9L714.8 364L709.9 364L709.9 353.8Q710.0 352.1 709.1 351.2Q708.3 350.3 706.8 350.3L706.8 350.3Q705.9 350.3 705.1 350.8Q704.4 351.2 704.0 352.0Q703.5 352.8 703.5 353.9Z M728.0 340.7L732.9 340.7L732.9 364L728.0 364L728.0 340.7ZM744.7 370.9L744.7 370.9Q742.4 370.9 740.7 370.3Q739 369.6 738.0 368.5Q737.0 367.4 736.7 366.0L736.7 366.0L741.2 365.4Q741.4 366.0 741.9 366.4Q742.3 366.9 743.0 367.2Q743.8 367.4 744.8 367.4L744.8 367.4Q746.4 367.4 747.4 366.7Q748.5 365.9 748.5 364.1L748.5 364.1L748.5 360.9L748.3 360.9Q747.9 361.6 747.3 362.3Q746.7 362.9 745.7 363.3Q744.7 363.8 743.3 363.8L743.3 363.8Q741.3 363.8 739.7 362.8Q738.1 361.9 737.1 360.0Q736.2 358.1 736.2 355.2L736.2 355.2Q736.2 352.3 737.2 350.3Q738.1 348.3 739.7 347.3Q741.3 346.3 743.3 346.3L743.3 346.3Q744.7 346.3 745.7 346.8Q746.7 347.3 747.3 348.0Q747.9 348.8 748.3 349.5L748.3 349.5L748.4 349.5L748.4 346.5L753.2 346.5L753.2 364.2Q753.2 366.4 752.1 367.9Q751.1 369.4 749.1 370.2Q747.2 370.9 744.7 370.9ZM744.8 360.1L744.8 360.1Q746.0 360.1 746.8 359.5Q747.6 358.9 748.0 357.8Q748.5 356.8 748.5 355.2L748.5 355.2Q748.5 353.7 748.0 352.6Q747.6 351.4 746.8 350.8Q746.0 350.2 744.8 350.2L744.8 350.2Q743.6 350.2 742.8 350.8Q742.0 351.5 741.6 352.6Q741.1 353.7 741.1 355.2L741.1 355.2Q741.1 356.7 741.6 357.8Q742.0 358.9 742.8 359.5Q743.6 360.1 744.8 360.1ZM765.0 364.3L765.0 364.3Q762.3 364.3 760.4 363.2Q758.5 362.1 757.4 360.1Q756.4 358.0 756.4 355.3L756.4 355.3Q756.4 352.6 757.4 350.6Q758.5 348.6 760.4 347.4Q762.3 346.3 765.0 346.3L765.0 346.3Q767.6 346.3 769.6 347.4Q771.5 348.6 772.5 350.6Q773.6 352.6 773.6 355.3L773.6 355.3Q773.6 358.0 772.5 360.1Q771.5 362.1 769.6 363.2Q767.6 364.3 765.0 364.3ZM765.0 360.6L765.0 360.6Q766.2 360.6 767.0 359.9Q767.8 359.2 768.2 358.0Q768.7 356.8 768.7 355.3L768.7 355.3Q768.7 353.8 768.2 352.6Q767.8 351.4 767.0 350.7Q766.2 350.0 765.0 350.0L765.0 350.0Q763.8 350.0 763.0 350.7Q762.1 351.4 761.7 352.6Q761.3 353.8 761.3 355.3L761.3 355.3Q761.3 356.8 761.7 358.0Q762.1 359.2 763.0 359.9Q763.8 360.6 765.0 360.6ZM781.6 364L776.7 364L776.7 346.5L781.4 346.5L781.4 349.6L781.6 349.6Q782.1 348.0 783.2 347.1Q784.3 346.3 785.8 346.3L785.8 346.3Q786.2 346.3 786.6 346.3Q787.0 346.4 787.3 346.5L787.3 346.5L787.3 350.8Q787.0 350.7 786.4 350.6Q785.8 350.5 785.3 350.5L785.3 350.5Q784.2 350.5 783.4 351.0Q782.5 351.4 782.1 352.2Q781.6 353.1 781.6 354.1L781.6 354.1L781.6 364Z "/></svg>